<svg width="21" height="23" viewBox="0 0 21 23" fill="none" xmlns="http://www.w3.org/2000/svg">
<path d="M20 10.3604H16.8579C16.4412 10.3604 16.0416 10.5209 15.747 10.8067C15.4523 11.0925 15.2868 11.48 15.2868 11.8842V15.6936C15.2868 16.0978 15.4523 16.4853 15.747 16.7711C16.0416 17.0569 16.4412 17.2174 16.8579 17.2174H18.4289C18.8456 17.2174 19.2452 17.0569 19.5398 16.7711C19.8345 16.4853 20 16.0978 20 15.6936V10.3604ZM20 10.3604C20 9.15333 19.7536 7.9582 19.275 6.84396C18.7964 5.72973 18.095 4.71845 17.2114 3.86847C16.3277 3.01849 15.2793 2.34664 14.1265 1.89168C12.9738 1.43672 11.7396 1.20767 10.4951 1.21772C9.25143 1.20893 8.01827 1.43892 6.86667 1.89444C5.71507 2.34996 4.66778 3.02202 3.78517 3.87187C2.90256 4.72172 2.20207 5.73258 1.72406 6.84618C1.24605 7.95979 0.999967 9.15414 1 10.3604V15.6936C1 16.0978 1.16552 16.4853 1.46015 16.7711C1.75478 17.0569 2.15439 17.2174 2.57106 17.2174H4.14212C4.55879 17.2174 4.95839 17.0569 5.25303 16.7711C5.54766 16.4853 5.71318 16.0978 5.71318 15.6936V11.8842C5.71318 11.48 5.54766 11.0925 5.25303 10.8067C4.95839 10.5209 4.55879 10.3604 4.14212 10.3604H1" stroke="#1C1F35" stroke-width="2" stroke-linecap="round" stroke-linejoin="round"/>
<path d="M20 16.2174V18.3603C20 19.118 19.661 19.8448 19.0575 20.3806C18.454 20.9164 17.6356 21.2174 16.7821 21.2174H11" stroke="#1C1F35" stroke-width="2" stroke-linecap="round" stroke-linejoin="round"/>
</svg>
