<svg width="33" height="20" viewBox="0 0 33 20" fill="none" xmlns="http://www.w3.org/2000/svg">
<path d="M30.927 1.16571H2.14132C1.52986 1.16571 1.03418 1.6443 1.03418 2.23468V17.2002C1.03418 17.7906 1.52986 18.2692 2.14132 18.2692H30.927C31.5385 18.2692 32.0342 17.7906 32.0342 17.2002V2.23468C32.0342 1.6443 31.5385 1.16571 30.927 1.16571Z" stroke="#1C1F35" stroke-width="1.5" stroke-linecap="round" stroke-linejoin="round"/>
<path d="M16.5343 13.9933C18.6007 13.9933 20.2757 12.3182 20.2757 10.2519C20.2757 8.18557 18.6007 6.5105 16.5343 6.5105C14.468 6.5105 12.793 8.18557 12.793 10.2519C12.793 12.3182 14.468 13.9933 16.5343 13.9933Z" stroke="#1C1F35" stroke-width="1.5" stroke-linecap="round" stroke-linejoin="round"/>
<path d="M23.4824 1.16571L32.0341 8.64847" stroke="#1C1F35" stroke-width="1.5" stroke-linecap="round" stroke-linejoin="round"/>
<path d="M23.4824 18.2695L32.0341 10.7867" stroke="#1C1F35" stroke-width="1.5" stroke-linecap="round" stroke-linejoin="round"/>
<path d="M9.5859 1.16571L1.03418 8.64847" stroke="#1C1F35" stroke-width="1.5" stroke-linecap="round" stroke-linejoin="round"/>
<path d="M9.5859 18.2695L1.03418 10.7867" stroke="#1C1F35" stroke-width="1.5" stroke-linecap="round" stroke-linejoin="round"/>
</svg>
