<svg width="26" height="27" viewBox="0 0 26 27" fill="none" xmlns="http://www.w3.org/2000/svg">
<path d="M13 1.21741C19.6274 1.21741 25 6.58999 25 13.2174C25 19.8448 19.6274 25.2174 13 25.2174C6.37258 25.2174 1 19.8448 1 13.2174C1 6.58999 6.37258 1.21741 13 1.21741Z" stroke="#1C1F35" stroke-width="2" stroke-linecap="round" stroke-linejoin="round"/>
<path d="M2 17.2174H24" stroke="#1C1F35" stroke-width="2" stroke-linecap="round" stroke-linejoin="round"/>
<path d="M2 9.21741H24" stroke="#1C1F35" stroke-width="2" stroke-linecap="round" stroke-linejoin="round"/>
<path d="M13 1.21741C15.2091 1.21741 17 6.58999 17 13.2174C17 19.8448 15.2091 25.2174 13 25.2174C10.7909 25.2174 9 19.8448 9 13.2174C9 6.58999 10.7909 1.21741 13 1.21741Z" stroke="#1C1F35" stroke-width="2" stroke-linecap="round" stroke-linejoin="round"/>
</svg>
