<svg width="24" height="27" viewBox="0 0 24 27" fill="none" xmlns="http://www.w3.org/2000/svg">
<path d="M23 18.7544V7.68041C22.9991 7.52045 22.9552 7.36355 22.8728 7.22552C22.7903 7.08749 22.6721 6.97322 22.5302 6.89423L12.4469 1.33477C12.311 1.25789 12.1569 1.21741 12 1.21741C11.8431 1.21741 11.689 1.25789 11.5531 1.33477L1.46979 6.89423C1.32788 6.97322 1.20973 7.08749 1.12725 7.22552C1.04477 7.36355 1.00088 7.52045 1 7.68041V18.7544C1.00088 18.9144 1.04477 19.0713 1.12725 19.2093C1.20973 19.3473 1.32788 19.4616 1.46979 19.5406L11.5531 25.1C11.689 25.1769 11.8431 25.2174 12 25.2174C12.1569 25.2174 12.311 25.1769 12.4469 25.1L22.5302 19.5406C22.6721 19.4616 22.7903 19.3473 22.8728 19.2093C22.9552 19.0713 22.9991 18.9144 23 18.7544V18.7544Z" stroke="#1C1F35" stroke-width="2" stroke-linecap="round" stroke-linejoin="round"/>
<path d="M18 16.2174V10.3027L7 4.21741" stroke="#1C1F35" stroke-width="2" stroke-linecap="round" stroke-linejoin="round"/>
<path d="M23 7.21741L12.1043 13.2174L1 7.21741" stroke="#1C1F35" stroke-width="2" stroke-linecap="round" stroke-linejoin="round"/>
<path d="M12 13.2174V25.2174" stroke="#1C1F35" stroke-width="2" stroke-linecap="round" stroke-linejoin="round"/>
</svg>
