<svg width="22" height="25" viewBox="0 0 22 25" fill="none" xmlns="http://www.w3.org/2000/svg">
<path d="M11 4.21741V1.21741" stroke="#1C1F35" stroke-width="2" stroke-linecap="round" stroke-linejoin="round"/>
<path d="M21 15.7044C19.4792 21.039 12.4375 22.9009 11.1875 23.1938C11.0645 23.2253 10.9355 23.2253 10.8125 23.1938C9.5625 22.9009 2.52083 21.039 1 15.7044V12.127C0.999986 11.9508 1.05536 11.7791 1.15824 11.6363C1.26111 11.4936 1.40623 11.3871 1.57292 11.332L10.7396 8.25673C10.9093 8.2043 11.0907 8.2043 11.2604 8.25673L20.4271 11.332C20.5938 11.3871 20.7389 11.4936 20.8418 11.6363C20.9446 11.7791 21 11.9508 21 12.127V15.7044Z" stroke="#1C1F35" stroke-width="2" stroke-linecap="round" stroke-linejoin="round"/>
<path d="M11 16.2174V8.21741" stroke="#1C1F35" stroke-width="2" stroke-linecap="round" stroke-linejoin="round"/>
<path d="M4 10.2174V4.96741C4 4.76849 4.0878 4.57773 4.24408 4.43708C4.40036 4.29643 4.61232 4.21741 4.83333 4.21741H18.1667C18.3877 4.21741 18.5996 4.29643 18.7559 4.43708C18.9122 4.57773 19 4.76849 19 4.96741V10.2174" stroke="#1C1F35" stroke-width="2" stroke-linecap="round" stroke-linejoin="round"/>
</svg>
